[Header]
FileType HTR
DataType HTRS
FileVersion 1
NumSegments 64
NumFrames 4
DataFrameRate 24
EulerRotationOrder ZYX
CalibrationUnits mm
RotationUnits Degrees
GlobalAxisofGravity Y
BoneLengthAxis Y
ScaleFactor 1.0
[SegmentNames&Hierarchy]
Hips	GLOBAL
Spine	Hips
Spine1	Spine
Spine2	Spine1
Neck	Spine2
Head	Neck
LeftEye	Head
RightEye	Head
LeftShoulder	Spine2
LeftArm	LeftShoulder
LeftForeArm	LeftArm
LeftHand	LeftForeArm
LeftHandThumb1	LeftHand
LeftHandThumb2	LeftHandThumb1
LeftHandThumb3	LeftHandThumb2
LeftHandThumb4	LeftHandThumb3
LeftHandIndex1	LeftHand
LeftHandIndex2	LeftHandIndex1
LeftHandIndex3	LeftHandIndex2
LeftHandIndex4	LeftHandIndex3
LeftHandMiddle1	LeftHand
LeftHandMiddle2	LeftHandMiddle1
LeftHandMiddle3	LeftHandMiddle2
LeftHandMiddle4	LeftHandMiddle3
LeftHandRing1	LeftHand
LeftHandRing2	LeftHandRing1
LeftHandRing3	LeftHandRing2
LeftHandRing4	LeftHandRing3
LeftHandPinky1	LeftHand
LeftHandPinky2	LeftHandPinky1
LeftHandPinky3	LeftHandPinky2
LeftHandPinky4	LeftHandPinky3
RightShoulder	Spine2
RightArm	RightShoulder
RightForeArm	RightArm
RightHand	RightForeArm
RightHandPinky1	RightHand
RightHandPinky2	RightHandPinky1
RightHandPinky3	RightHandPinky2
RightHandPinky4	RightHandPinky3
RightHandRing1	RightHand
RightHandRing2	RightHandRing1
RightHandRing3	RightHandRing2
RightHandRing4	RightHandRing3
RightHandMiddle1	RightHand
RightHandMiddle2	RightHandMiddle1
RightHandMiddle3	RightHandMiddle2
RightHandMiddle4	RightHandMiddle3
RightHandIndex1	RightHand
RightHandIndex2	RightHandIndex1
RightHandIndex3	RightHandIndex2
RightHandIndex4	RightHandIndex3
RightHandThumb1	RightHand
RightHandThumb2	RightHandThumb1
RightHandThumb3	RightHandThumb2
RightHandThumb4	RightHandThumb3
LeftUpLeg	Hips
LeftLeg	LeftUpLeg
LeftFoot	LeftLeg
LeftToeBase	LeftFoot
RightUpLeg	Hips
RightLeg	RightUpLeg
RightFoot	RightLeg
RightToeBase	RightFoot
[BasePosition]
Hips	0	0	0	0	0	0	1
Spine	0	0	0	0	0	0	1
Spine1	0	0	0	0	0	0	1
Spine2	0	0	0	0	0	0	1
Neck	0	0	0	0	0	0	1
Head	0	0	0	0	0	0	1
LeftEye	0	0	0	0	0	0	1
RightEye	0	0	0	0	0	0	1
LeftShoulder	0	0	0	0	0	0	1
LeftArm	0	0	0	0	0	0	1
LeftForeArm	0	0	0	0	0	0	1
LeftHand	0	0	0	0	0	0	1
LeftHandThumb1	0	0	0	0	0	0	1
LeftHandThumb2	0	0	0	0	0	0	1
LeftHandThumb3	0	0	0	0	0	0	1
LeftHandThumb4	0	0	0	0	0	0	1
LeftHandIndex1	0	0	0	0	0	0	1
LeftHandIndex2	0	0	0	0	0	0	1
LeftHandIndex3	0	0	0	0	0	0	1
LeftHandIndex4	0	0	0	0	0	0	1
LeftHandMiddle1	0	0	0	0	0	0	1
LeftHandMiddle2	0	0	0	0	0	0	1
LeftHandMiddle3	0	0	0	0	0	0	1
LeftHandMiddle4	0	0	0	0	0	0	1
LeftHandRing1	0	0	0	0	0	0	1
LeftHandRing2	0	0	0	0	0	0	1
LeftHandRing3	0	0	0	0	0	0	1
LeftHandRing4	0	0	0	0	0	0	1
LeftHandPinky1	0	0	0	0	0	0	1
LeftHandPinky2	0	0	0	0	0	0	1
LeftHandPinky3	0	0	0	0	0	0	1
LeftHandPinky4	0	0	0	0	0	0	1
RightShoulder	0	0	0	0	0	0	1
RightArm	0	0	0	0	0	0	1
RightForeArm	0	0	0	0	0	0	1
RightHand	0	0	0	0	0	0	1
RightHandPinky1	0	0	0	0	0	0	1
RightHandPinky2	0	0	0	0	0	0	1
RightHandPinky3	0	0	0	0	0	0	1
RightHandPinky4	0	0	0	0	0	0	1
RightHandRing1	0	0	0	0	0	0	1
RightHandRing2	0	0	0	0	0	0	1
RightHandRing3	0	0	0	0	0	0	1
RightHandRing4	0	0	0	0	0	0	1
RightHandMiddle1	0	0	0	0	0	0	1
RightHandMiddle2	0	0	0	0	0	0	1
RightHandMiddle3	0	0	0	0	0	0	1
RightHandMiddle4	0	0	0	0	0	0	1
RightHandIndex1	0	0	0	0	0	0	1
RightHandIndex2	0	0	0	0	0	0	1
RightHandIndex3	0	0	0	0	0	0	1
RightHandIndex4	0	0	0	0	0	0	1
RightHandThumb1	0	0	0	0	0	0	1
RightHandThumb2	0	0	0	0	0	0	1
RightHandThumb3	0	0	0	0	0	0	1
RightHandThumb4	0	0	0	0	0	0	1
LeftUpLeg	0	0	0	0	0	0	1
LeftLeg	0	0	0	0	0	0	1
LeftFoot	0	0	0	0	0	0	1
LeftToeBase	0	0	0	0	0	0	1
RightUpLeg	0	0	0	0	0	0	1
RightLeg	0	0	0	0	0	0	1
RightFoot	0	0	0	0	0	0	1
RightToeBase	0	0	0	0	0	0	1
[Hips]
14	1998.645996	1002.845581	-31.95376396	2.203955889	73.77024078	-7.657025814	1.0
15	2155.987305	988.3999634	-22.59566879	2.318995953	74.47044373	-5.525713444	1.0
16	2296.970459	971.5357666	-8.956476212	-4.570153713	72.63497162	-11.92829227	1.0
17	2426.290527	957.8681641	2.663583755	-10.19967461	69.54402924	-19.52590942	1.0
[Spine]
14	0	101.8159943	1.315000057	5.215992451	-15.42962742	3.059463263	1.0
15	0	101.8159943	1.315000057	6.134832859	-12.73779678	1.48718679	1.0
16	0	101.8159943	1.315000057	6.846508026	-9.06588459	1.88442564	1.0
17	0	101.8159943	1.315000057	7.243896961	-6.510244846	3.830630302	1.0
[Spine1]
14	0	100.8349991	-10.00800037	1.923578858	-5.933071136	1.33722651	1.0
15	0	100.8349991	-10.00800037	2.172875643	-4.987999439	0.97200495	1.0
16	0	100.8349991	-10.00800037	2.424925089	-3.667340279	1.038746715	1.0
17	0	100.8349991	-10.00800037	2.546260595	-2.604007483	1.433107734	1.0
[Spine2]
14	0	91	-13.73399925	1.915605783	-5.926577091	1.376801133	1.0
15	0	91	-13.73399925	2.177810431	-4.97692728	1.015737653	1.0
16	0	91	-13.73399925	2.424628735	-3.659085274	1.078347325	1.0
17	0	91	-13.73399925	2.52854538	-2.603116512	1.467284083	1.0
[Neck]
14	0	166.7169952	-25.16200066	-0.4536430836	-6.042459488	-0.06643197685	1.0
15	0	166.7169952	-25.16200066	-0.3523112237	-7.238120556	0.5120825768	1.0
16	0	166.7169952	-25.16200066	-0.626319766	-8.386486053	1.080195546	1.0
17	0	166.7169952	-25.16200066	-1.644287109	-8.944030762	1.585891843	1.0
[Head]
14	0	96.17900085	16.84999847	-18.65795898	-31.07710075	16.30313683	1.0
15	0	96.17900085	16.84999847	-19.56738091	-34.88373184	17.64192772	1.0
16	0	96.17900085	16.84999847	-20.62539673	-37.78542328	18.26214027	1.0
17	0	96.17900085	16.84999847	-21.65987587	-38.18408585	18.53679848	1.0
[LeftEye]
14	30.6760006	64.09500122	92.83599854	0	0	0	1.0
15	30.6760006	64.09500122	92.83599854	0	0	0	1.0
16	30.6760006	64.09500122	92.83599854	0	0	0	1.0
17	30.6760006	64.09500122	92.83599854	0	0	0	1.0
[RightEye]
14	-30.6760006	64.09500122	92.83499908	0	0	0	1.0
15	-30.6760006	64.09500122	92.83499908	0	0	0	1.0
16	-30.6760006	64.09500122	92.83499908	0	0	0	1.0
17	-30.6760006	64.09500122	92.83499908	0	0	0	1.0
[LeftShoulder]
14	45.70400238	109.4599991	-26.28000069	9.282354355	-24.4861908	-22.33611298	1.0
15	45.70400238	109.4599991	-26.28000069	9.205204964	-25.17223549	-21.59860611	1.0
16	45.70400238	109.4599991	-26.28000069	8.500444412	-24.93252373	-19.23652649	1.0
17	45.70400238	109.4599991	-26.28000069	7.085857391	-22.53671074	-15.69361591	1.0
[LeftArm]
14	105.923996	-5.24600029	-22.32099915	11.28956985	0.555544436	-30.37159348	1.0
15	105.923996	-5.24600029	-22.32099915	13.41256237	4.448378086	-35.02164841	1.0
16	105.923996	-5.24600029	-22.32099915	15.64379978	9.874650002	-39.18390656	1.0
17	105.923996	-5.24600029	-22.32099915	17.34848595	15.74542427	-41.39597321	1.0
[LeftForeArm]
14	278.414978	-0.0009999999311	0	-0.0001068115234	-99.85081482	-0.0001220702979	1.0
15	278.414978	-0.0009999999311	0	-3.051755084e-05	-93.37828827	-0.0001831054688	1.0
16	278.414978	-0.0009999999311	0	2.167742423e-06	-78.54576111	-0.0001873289002	1.0
17	278.414978	-0.0009999999311	0	-3.74505953e-06	-62.8588295	-0.0001914298045	1.0
[LeftHand]
14	283.2879944	0	0	23.46375847	-11.07624817	22.21707344	1.0
15	283.2879944	0	0	15.87751198	-15.53355122	37.2192421	1.0
16	283.2879944	0	0	5.730602741	-17.15708542	45.55280304	1.0
17	283.2879944	0	0	-4.924163342	-17.82167816	45.24588394	1.0
[LeftHandThumb1]
14	24.6609993	-15.75	26.8239994	1.156249523	-2.255273819	-4.925507069	1.0
15	24.6609993	-15.75	26.8239994	3.04595232	1.291301489	-2.773471594	1.0
16	24.6609993	-15.75	26.8239994	3.691931248	2.410798788	-2.065142632	1.0
17	24.6609993	-15.75	26.8239994	3.418216944	1.899677873	-2.406544209	1.0
[LeftHandThumb2]
14	32.29800034	-18.64699936	18.64699936	2.820011616	19.82628632	11.58763218	1.0
15	32.29800034	-18.64699936	18.64699936	2.940966129	15.86698437	10.6477375	1.0
16	32.29800034	-18.64699936	18.64699936	3.0170753	14.55081177	10.41727066	1.0
17	32.29800034	-18.64699936	18.64699936	2.955383778	15.29677963	10.1834774	1.0
[LeftHandThumb3]
14	26.52600098	-15.31499958	15.31499958	0.9861614704	7.998413563	1.84449923	1.0
15	26.52600098	-15.31499958	15.31499958	0.4832723737	2.516856194	-1.36978519	1.0
16	26.52600098	-15.31499958	15.31499958	0.349036634	0.4389823973	-2.804538965	1.0
17	26.52600098	-15.31499958	15.31499958	0.3078776002	2.390703201	-1.625269055	1.0
[LeftHandThumb4]
14	19.54599953	-11.28499985	11.28499985	0	0	0	1.0
15	19.54599953	-11.28499985	11.28499985	0	0	0	1.0
16	19.54599953	-11.28499985	11.28499985	0	0	0	1.0
17	19.54599953	-11.28499985	11.28499985	0	0	0	1.0
[LeftHandIndex1]
14	91.09299469	-5.170999527	22.60099792	-1.891666174	-8.048449516	-20.01893997	1.0
15	91.09299469	-5.170999527	22.60099792	-1.403298855	-1.039306164	-17.05841637	1.0
16	91.09299469	-5.170999527	22.60099792	-0.818549037	2.866379738	-12.65554905	1.0
17	91.09299469	-5.170999527	22.60099792	-0.5200018287	1.929518938	-7.131804466	1.0
[LeftHandIndex2]
14	36.76399994	0	0	-0.2445343435	1.89549768	-11.16853905	1.0
15	36.76399994	0	0	-0.175673604	1.68182373	-8.962479591	1.0
16	36.76399994	0	0	-0.1553021967	1.612617135	-8.253695488	1.0
17	36.76399994	0	0	-0.1799914986	1.696077466	-9.108906746	1.0
[LeftHandIndex3]
14	28.83100128	0	0	-0.07082531601	0.5576758385	-7.675673962	1.0
15	28.83100128	0	0	-0.04252051935	0.306073159	-5.158168793	1.0
16	28.83100128	0	0	-0.03388552368	0.1994116008	-4.09446764	1.0
17	28.83100128	0	0	-0.0400820598	0.2781873345	-4.880025864	1.0
[LeftHandIndex4]
14	23.92700005	0	0	0	0	0	1.0
15	23.92700005	0	0	0	0	0	1.0
16	23.92700005	0	0	0	0	0	1.0
17	23.92700005	0	0	0	0	0	1.0
[LeftHandMiddle1]
14	95.33399963	0	0	-3.033203363	-4.538221836	-29.32647514	1.0
15	95.33399963	0	0	-2.148800611	1.790520549	-21.75699997	1.0
16	95.33399963	0	0	-1.743461132	6.257480145	-17.92455292	1.0
17	95.33399963	0	0	-1.495766282	6.040099621	-15.9129467	1.0
[LeftHandMiddle2]
14	36.98199844	0	0	-0.7137125731	2.870448828	-21.63315773	1.0
15	36.98199844	0	0	-0.5494882464	2.577065229	-18.31249619	1.0
16	36.98199844	0	0	-0.4963046908	2.472639799	-17.15561485	1.0
17	36.98199844	0	0	-0.5083461404	2.496726274	-17.42140579	1.0
[LeftHandMiddle3]
14	29.50900078	0	0	-0.08665155619	1.188400745	-9.212679863	1.0
15	29.50900078	0	0	-0.03585502133	0.8532779217	-5.806869984	1.0
16	29.50900078	0	0	-0.02065580897	0.7136919498	-4.396618843	1.0
17	29.50900078	0	0	-0.02248208039	0.7323156595	-4.584506512	1.0
[LeftHandMiddle4]
14	28.3390007	0	0	0	0	0	1.0
15	28.3390007	0	0	0	0	0	1.0
16	28.3390007	0	0	0	0	0	1.0
17	28.3390007	0	0	0	0	0	1.0
[LeftHandRing1]
14	91.04499817	-0.4390000105	-18.65100098	-3.213357449	5.011636257	-30.88682175	1.0
15	91.04499817	-0.4390000105	-18.65100098	-2.745221376	8.532170296	-25.96051788	1.0
16	91.04499817	-0.4390000105	-18.65100098	-2.589789867	11.01412392	-23.78138924	1.0
17	91.04499817	-0.4390000105	-18.65100098	-2.409919739	10.32323933	-22.62364388	1.0
[LeftHandRing2]
14	31.54000092	0	0	-0.4811938703	2.86330533	-26.11279106	1.0
15	31.54000092	0	0	-0.2291703969	2.180147409	-18.75909042	1.0
16	31.54000092	0	0	-0.1565576047	1.912163138	-15.95841885	1.0
17	31.54000092	0	0	-0.1765477061	1.99131453	-16.78160095	1.0
[LeftHandRing3]
14	29.37700081	0	0	-0.07071509957	1.811842561	-18.39302444	1.0
15	29.37700081	0	0	0.0442629084	1.09430325	-11.0891819	1.0
16	29.37700081	0	0	0.06393346936	0.816398859	-8.291456223	1.0
17	29.37700081	0	0	0.0596928969	0.8959759474	-9.091552734	1.0
[LeftHandRing4]
14	26.47500038	0	0	0	0	0	1.0
15	26.47500038	0	0	0	0	0	1.0
16	26.47500038	0	0	0	0	0	1.0
17	26.47500038	0	0	0	0	0	1.0
[LeftHandPinky1]
14	80.77799988	-4.887000084	-38.06099701	-6.68899107	2.993854523	-36.04788971	1.0
15	80.77799988	-4.887000084	-38.06099701	-5.182296753	10.53136635	-28.01692581	1.0
16	80.77799988	-4.887000084	-38.06099701	-3.239401579	14.6764946	-24.38486862	1.0
17	80.77799988	-4.887000084	-38.06099701	-2.328094959	13.52548885	-21.59512901	1.0
[LeftHandPinky2]
14	36	0	0	-1.266259313	3.112193108	-35.83633041	1.0
15	36	0	0	-0.6023346186	2.083874226	-23.55908203	1.0
16	36	0	0	-0.4425796866	1.737963676	-19.74746704	1.0
17	36	0	0	-0.5436605215	1.963748336	-22.22170067	1.0
[LeftHandPinky3]
14	21.14200211	0	0	-0.1213407815	1.603348494	-7.5190382	1.0
15	21.14200211	0	0	0.01289903279	0.4104446471	4.470084667	1.0
16	21.14200211	0	0	0.003624575445	0.0387552008	8.176646233	1.0
17	21.14200211	0	0	0.0123809604	0.2797187865	5.77327013	1.0
[LeftHandPinky4]
14	19.75699997	0	0	0	0	0	1.0
15	19.75699997	0	0	0	0	0	1.0
16	19.75699997	0	0	0	0	0	1.0
17	19.75699997	0	0	0	0	0	1.0
[RightShoulder]
14	-45.70000076	109.4620056	-26.28000069	2.66078639	-6.926763535	14.08148193	1.0
15	-45.70000076	109.4620056	-26.28000069	2.439389706	-8.184557915	14.99123955	1.0
16	-45.70000076	109.4620056	-26.28000069	2.393717289	-7.904333591	14.84157372	1.0
17	-45.70000076	109.4620056	-26.28000069	2.734382629	-5.35776186	13.06101322	1.0
[RightArm]
14	-105.9280014	-5.248000145	-22.32099915	25.04603386	-39.06613922	19.6688118	1.0
15	-105.9280014	-5.248000145	-22.32099915	22.1003418	-37.09614563	23.58927536	1.0
16	-105.9280014	-5.248000145	-22.32099915	21.73368454	-27.45192146	30.1603508	1.0
17	-105.9280014	-5.248000145	-22.32099915	23.20689201	-12.60865784	38.12659836	1.0
[RightForeArm]
14	-278.414978	0	0	7.428025128e-06	63.30948639	1.305546357e-05	1.0
15	-278.414978	0	0	7.28988482e-07	69.47317505	4.056333182e-06	1.0
16	-278.414978	0	0	1.065609194e-05	69.55089569	2.567599404e-05	1.0
17	-278.414978	0	0	2.937322279e-05	64.44377899	5.470262477e-05	1.0
[RightHand]
14	-283.2879944	0	0.0009999999311	41.0055542	-18.39366341	15.25461388	1.0
15	-283.2879944	0	0.0009999999311	40.50011063	-21.95246315	16.01144218	1.0
16	-283.2879944	0	0.0009999999311	37.272892	-19.69952011	10.61145306	1.0
17	-283.2879944	0	0.0009999999311	30.10736847	-14.37250328	2.84381628	1.0
[RightHandPinky1]
14	-80.76699829	-4.885000229	-38.06000137	-6.458040714	-16.66075897	45.50006866	1.0
15	-80.76699829	-4.885000229	-38.06000137	-7.081365108	-16.61022377	49.4460144	1.0
16	-80.76699829	-4.885000229	-38.06000137	-7.1561203	-16.10831642	51.63787079	1.0
17	-80.76699829	-4.885000229	-38.06000137	-6.939690113	-14.48704529	54.96927261	1.0
[RightHandPinky2]
14	-36	0	0.0009999999311	-2.679977655	-4.361453056	54.86211395	1.0
15	-36	0	0.0009999999311	-2.679953814	-4.361418247	54.86157227	1.0
16	-36	0	0.0009999999311	-2.624610662	-4.32646513	54.20479202	1.0
17	-36	0	0.0009999999311	-2.722853422	-4.387933731	55.36767578	1.0
[RightHandPinky3]
14	-21.14200211	0	0	-1.058143139	-0.4533124864	27.97264099	1.0
15	-21.14200211	0	0	-1.056697011	-0.4511307776	27.94668388	1.0
16	-21.14200211	0	0	-1.021589041	-0.3960493505	27.29532051	1.0
17	-21.14200211	0	0	-1.084458232	-0.4936939478	28.45350838	1.0
[RightHandPinky4]
14	-19.75699997	0	0	0	0	0	1.0
15	-19.75699997	0	0	0	0	0	1.0
16	-19.75699997	0	0	0	0	0	1.0
17	-19.75699997	0	0	0	0	0	1.0
[RightHandRing1]
14	-91.03599548	-0.4390000105	-18.65100098	-4.644924641	-10.85455704	39.2423172	1.0
15	-91.03599548	-0.4390000105	-18.65100098	-4.830648422	-11.28368187	40.42090988	1.0
16	-91.03599548	-0.4390000105	-18.65100098	-4.926522255	-11.48409176	41.03591919	1.0
17	-91.03599548	-0.4390000105	-18.65100098	-5.352924347	-11.10375309	44.22068405	1.0
[RightHandRing2]
14	-31.54000092	0	0	-1.024744511	-3.822618246	37.2743454	1.0
15	-31.54000092	0	0	-1.075026393	-3.892948389	38.14876938	1.0
16	-31.54000092	0	0	-1.069681525	-3.885583401	38.05670166	1.0
17	-31.54000092	0	0	-1.070251942	-3.886375666	38.06654358	1.0
[RightHandRing3]
14	-29.37700081	0	0	-0.4378456771	-0.8744600415	27.97229004	1.0
15	-29.37700081	0	0	-0.471214503	-0.9539840221	28.83880806	1.0
16	-29.37700081	0	0	-0.4676249623	-0.9455941319	28.74701691	1.0
17	-29.37700081	0	0	-0.4680881798	-0.946688652	28.75890541	1.0
[RightHandRing4]
14	-26.47500038	0	0	0	0	0	1.0
15	-26.47500038	0	0	0	0	0	1.0
16	-26.47500038	0	0	0	0	0	1.0
17	-26.47500038	0	0	0	0	0	1.0
[RightHandMiddle1]
14	-95.32500458	0	0	-3.087414742	-5.827745438	28.50209236	1.0
15	-95.32500458	0	0	-2.823088408	-6.698708057	26.4140358	1.0
16	-95.32500458	0	0	-2.709789038	-7.187622547	25.50056267	1.0
17	-95.32500458	0	0	-3.409628153	-6.87608099	30.81148338	1.0
[RightHandMiddle2]
14	-36.98199844	0	0	-1.282377362	-3.660590172	31.26892853	1.0
15	-36.98199844	0	0	-1.337526917	-3.724073648	32.10050201	1.0
16	-36.98199844	0	0	-1.357074738	-3.746123075	32.39199066	1.0
17	-36.98199844	0	0	-1.345675945	-3.733298302	32.22210693	1.0
[RightHandMiddle3]
14	-29.50900078	0	0	-0.4629974067	-2.251210451	22.03722763	1.0
15	-29.50900078	0	0	-0.4958956838	-2.326578856	22.86441612	1.0
16	-29.50900078	0	0	-0.5076845288	-2.352897882	23.15468597	1.0
17	-29.50900078	0	0	-0.5008722544	-2.337758303	22.98777199	1.0
[RightHandMiddle4]
14	-28.3390007	0	0.0009999999311	0	0	0	1.0
15	-28.3390007	0	0.0009999999311	0	0	0	1.0
16	-28.3390007	0	0.0009999999311	0	0	0	1.0
17	-28.3390007	0	0.0009999999311	0	0	0	1.0
[RightHandIndex1]
14	-91.08300018	-5.167999744	22.60099792	-1.34513104	-2.890826464	16.0247879	1.0
15	-91.08300018	-5.167999744	22.60099792	-1.202149391	-3.018582821	14.56161499	1.0
16	-91.08300018	-5.167999744	22.60099792	-1.037653923	-2.80496645	12.96842861	1.0
17	-91.08300018	-5.167999744	22.60099792	-1.328714252	-2.625087738	15.60529423	1.0
[RightHandIndex2]
14	-36.76399994	0	0	-0.3757616282	-2.240987778	14.80387592	1.0
15	-36.76399994	0	0	-0.4149008989	-2.332736254	15.78469467	1.0
16	-36.76399994	0	0	-0.4603634179	-2.434182167	16.87785912	1.0
17	-36.76399994	0	0	-0.4929864407	-2.503901958	17.63506699	1.0
[RightHandIndex3]
14	-28.83100128	0	0	-0.247689724	-0.1942243129	14.22146225	1.0
15	-28.83100128	0	0	-0.272614032	-0.2891533375	15.19735527	1.0
16	-28.83100128	0	0	-0.3023607433	-0.3946463168	16.28726006	1.0
17	-28.83100128	0	0	-0.3241120577	-0.4673956037	17.04235649	1.0
[RightHandIndex4]
14	-23.92700005	0	0	0	0	0	1.0
15	-23.92700005	0	0	0	0	0	1.0
16	-23.92700005	0	0	0	0	0	1.0
17	-23.92700005	0	0	0	0	0	1.0
[RightHandThumb1]
14	-24.64799881	-15.72700024	26.82600021	-10.34718609	-21.99156952	-14.67429543	1.0
15	-24.64799881	-15.72700024	26.82600021	-4.133417606	-10.74422073	-6.469878674	1.0
16	-24.64799881	-15.72700024	26.82600021	1.706927538	-1.106890321	3.077400446	1.0
17	-24.64799881	-15.72700024	26.82600021	3.367326975	2.024224997	6.602476597	1.0
[RightHandThumb2]
14	-32.29800034	-18.64699936	18.64699936	6.910104752	-12.35201454	4.652402878	1.0
15	-32.29800034	-18.64699936	18.64699936	7.231910706	-13.70122051	-2.749061823	1.0
16	-32.29800034	-18.64699936	18.64699936	6.554598331	-16.31496048	-9.671830177	1.0
17	-32.29800034	-18.64699936	18.64699936	4.891525269	-20.58414841	-11.73032665	1.0
[RightHandThumb3]
14	-26.52600098	-15.31399918	15.31399918	2.632720947	-11.35594082	-3.198103428	1.0
15	-26.52600098	-15.31399918	15.31399918	3.032421827	-12.72214794	-2.929993629	1.0
16	-26.52600098	-15.31399918	15.31399918	3.329803228	-13.69800186	-1.972603202	1.0
17	-26.52600098	-15.31399918	15.31399918	3.41459322	-14.10434723	-0.6365048885	1.0
[RightHandThumb4]
14	-19.54599953	-11.28499985	11.28499985	0	0	0	1.0
15	-19.54599953	-11.28499985	11.28499985	0	0	0	1.0
16	-19.54599953	-11.28499985	11.28499985	0	0	0	1.0
17	-19.54599953	-11.28499985	11.28499985	0	0	0	1.0
[LeftUpLeg]
14	82.07800293	-67.51699829	-15.99599934	15.38177204	11.36139297	-8.18741703	1.0
15	82.07800293	-67.51699829	-15.99599934	8.428401947	10.9998436	-7.274690151	1.0
16	82.07800293	-67.51699829	-15.99599934	-3.47512269	11.56091595	-2.723389387	1.0
17	82.07800293	-67.51699829	-15.99599934	-20.50125122	11.26406097	1.946949482	1.0
[LeftLeg]
14	0	-443.7049866	2.845999956	27.81005859	4.856455326	10.05706882	1.0
15	0	-443.7049866	2.845999956	54.33989716	1.36531806	11.57556248	1.0
16	0	-443.7049866	2.845999956	78.78701782	-1.006074548	10.61546993	1.0
17	0	-443.7049866	2.845999956	96.87240601	-2.326607704	10.22148514	1.0
[LeftFoot]
14	0	-444.2789917	-29.8219986	25.183218	10.54889202	-13.27057457	1.0
15	0	-444.2789917	-29.8219986	16.85405159	15.87203789	-15.4555006	1.0
16	0	-444.2789917	-29.8219986	10.16335011	14.94602203	-15.15237808	1.0
17	0	-444.2789917	-29.8219986	5.62213707	7.137960434	-11.32743073	1.0
[LeftToeBase]
14	0	-87.28699493	107.1060028	-11.86406994	-3.169979891e-06	-3.15735474e-06	1.0
15	0	-87.28699493	107.1060028	-8.892601013	-1.15951043e-05	-2.155773018e-06	1.0
16	0	-87.28699493	107.1060028	-7.97141695	2.643821972e-05	-1.458223323e-05	1.0
17	0	-87.28699493	107.1060028	-8.134308815	8.329034245e-06	3.461207143e-06	1.0
[RightUpLeg]
14	-82.07800293	-67.51699829	-15.99599934	-43.09558105	5.575747013	6.304805756	1.0
15	-82.07800293	-67.51699829	-15.99599934	-36.45306015	3.968145847	6.719274521	1.0
16	-82.07800293	-67.51699829	-15.99599934	-30.47153091	5.423633575	7.976518154	1.0
17	-82.07800293	-67.51699829	-15.99599934	-24.04398155	8.083786011	10.03315449	1.0
[RightLeg]
14	0	-443.7049866	2.861999989	30.88983154	1.75533092	-3.243895292	1.0
15	0	-443.7049866	2.861999989	31.6344986	1.358031273	-3.452572823	1.0
16	0	-443.7049866	2.861999989	38.78501892	1.35171473	-3.357135296	1.0
17	0	-443.7049866	2.861999989	40.7373848	1.750756264	-3.868115664	1.0
[RightFoot]
14	0	-444.2770081	-29.83799934	-10.86117935	-3.910352945	13.74571609	1.0
15	0	-444.2770081	-29.83799934	-12.22816753	0.6234706044	2.878186703	1.0
16	0	-444.2770081	-29.83799934	-14.74984837	0.467502147	-1.562848926	1.0
17	0	-444.2770081	-29.83799934	-24.33667564	-0.037348032	-0.1238564476	1.0
[RightToeBase]
14	0	-87.28699493	107.1060028	-3.973820686	3.981298869e-05	1.464766865e-05	1.0
15	0	-87.28699493	107.1060028	-3.985021591	5.614934253e-06	2.981163561e-06	1.0
16	0	-87.28699493	107.1060028	-4.499889374	2.994707393e-05	-2.528264986e-06	1.0
17	0	-87.28699493	107.1060028	-1.897016644	-6.791807664e-06	6.651556305e-06	1.0
[EndOfFile]
